<?xml version="1.0" encoding="utf-8"?>
<!-- Generator: Adobe Illustrator 25.2.0, SVG Export Plug-In . SVG Version: 6.00 Build 0)  -->
<svg version="1.1"
	 id="svg15698" inkscape:output_extension="org.inkscape.output.svg.inkscape" inkscape:version="0.47pre4 r22446" xmlns:cc="http://creativecommons.org/ns#" xmlns:dc="http://purl.org/dc/elements/1.1/" xmlns:inkscape="http://www.inkscape.org/namespaces/inkscape" xmlns:ns1="http://sozi.baierouge.fr" xmlns:rdf="http://www.w3.org/1999/02/22-rdf-syntax-ns#" xmlns:sodipodi="http://sodipodi.sourceforge.net/DTD/sodipodi-0.dtd" xmlns:svg="http://www.w3.org/2000/svg"
	 xmlns="http://www.w3.org/2000/svg" xmlns:xlink="http://www.w3.org/1999/xlink" x="0px" y="0px" viewBox="0 0 226.9 253.4"
	 style="enable-background:new 0 0 226.9 253.4;" xml:space="preserve">
<style type="text/css">
	.st0{fill:none;stroke:#00A7A2;stroke-width:4.7753;stroke-linecap:round;stroke-linejoin:round;}
	.st1{fill-rule:evenodd;clip-rule:evenodd;fill:#D7BF1B;}
	
		.st2{fill-rule:evenodd;clip-rule:evenodd;fill:url(#path10353_1_);stroke:url(#path10353_2_);stroke-width:4.7086;stroke-linecap:round;stroke-linejoin:round;}
	.st3{display:none;fill-rule:evenodd;clip-rule:evenodd;fill:#FFE6D5;}
	.st4{display:none;}
	.st5{display:inline;}
	.st6{opacity:0.7112;fill:#808000;enable-background:new    ;}
	.st7{fill:#BEA219;}
</style>
<g id="layer1" transform="translate(-55.42 -43.555)" inkscape:groupmode="layer" inkscape:label="Ebene 1">
	<g id="g2177">
		
			<g id="g7969" inkscape:export-filename="/home/lila/posgrado/prodmult2/diapos/botella.png" inkscape:export-xdpi="38" inkscape:export-ydpi="38">
			
				<path id="path7881" inkscape:original-d="m 60.970787,241.59642 c 0,0 37.195372,3.30944 56.131203,46.9941 18.93583,43.68466 0.67627,1.98566 0.67627,1.98566" inkscape:path-effect="#path-effect7883" class="st0" d="
				M43.4,133.2c6.6,10.9,10.3,23.6,10.5,36.5c0.2,12.8-3.1,25.7-9.3,36.8c-0.4,0.6-0.7,1.2-1.1,1.8"/>
			<path id="path10351" sodipodi:nodetypes="ccccc" class="st1" d="M321.6,152.6l-34.4,7.1l-1.5,16.2l36.2,8.1
				C324.3,175.3,327,166.8,321.6,152.6L321.6,152.6z"/>
			
				<linearGradient id="path10353_1_" gradientUnits="userSpaceOnUse" x1="315.6513" y1="1096.907" x2="249.9413" y2="926.189" gradientTransform="matrix(0.6538 0.7567 -0.7567 0.6538 740.2313 -693.3163)">
				<stop  offset="0" style="stop-color:#7ACD70"/>
				<stop  offset="1" style="stop-color:#1BB7D7;stop-opacity:0"/>
			</linearGradient>
			
				<linearGradient id="path10353_2_" gradientUnits="userSpaceOnUse" x1="-283.3151" y1="-158.1231" x2="-262.8151" y2="-146.9451" gradientTransform="matrix(7.462984e-02 7.8473 -7.8473 7.462984e-02 -1016.8071 2336.1008)">
				<stop  offset="0" style="stop-color:#184D7D"/>
				<stop  offset="1" style="stop-color:#66D9FF"/>
			</linearGradient>
			<path id="path10353" sodipodi:nodetypes="ccssccssccc" class="st2" d="M42.4,132.5c0,0,119-44.5,158.4-21.3
				c0.2,19.4,52,38.5,81.2,43.5c2.5,0.5,5.6,1.9,8.7,1.6c4.6-0.4,9.2-2.7,10.9-2.7l0.3,31.4c-2,0-4.8-2.6-8.4-4
				c-3.2-1.3-6.7-0.4-8.3-0.1c-28,5-80.2,26.9-80,46.4c-39,24-162.1-16.3-162.1-16.3C32.6,183.3,33.5,157.3,42.4,132.5L42.4,132.5z"
				/>
			<path id="path10355" sodipodi:nodetypes="ccccc" class="st3" d="M192.9,139.5l-138.1-6.4l-7.2,74.3l182-19.2L192.9,139.5
				L192.9,139.5z"/>
			<g id="text7084" transform="rotate(-46.006)" class="st4">
				<path id="path7955" class="st5" d="M-77.3,159.7l1,1.2l-20.1,17.3l-1-1.2L-77.3,159.7 M-74.4,158.2c-0.5-0.6-0.5-1.2,0.1-1.7
					c0.6-0.5,1.2-0.5,1.7,0.1c0.5,0.6,0.5,1.2-0.1,1.7C-73.3,158.8-73.9,158.8-74.4,158.2"/>
				<path id="path7957" class="st5" d="M-60.7,170.5l1,1.2l-9.3,8c-0.4,0.3-0.8,0.8-0.9,1.3c-0.1,0.5-0.1,1,0.3,1.4
					c0.7,0.8,1.4,1,2.4,0.8l8.1-1.6l0.3,1.6l-8.1,1.6c-1.6,0.3-2.9-0.1-3.9-1.4c-0.7-0.8-0.9-1.8-0.6-2.8c0.3-0.9,0.7-1.7,1.4-2.1
					c-3.1,0.3-5.5-0.5-7.2-2.5c-1.2-1.4-1.7-3-1.5-4.9c0.3-1.8,1.1-3.5,2.6-4.8c1.9-1.6,4.1-2.4,6.6-2.3c2.4,0,4.3,0.9,5.6,2.5
					c1.4,1.7,1.9,3.4,1.5,5.4L-60.7,170.5 M-65,167.5c-1-1.1-2.5-1.8-4.4-1.9c-2.1-0.1-3.9,0.5-5.4,1.8c-1.3,1.1-2.1,2.3-2.3,3.7
					c-0.2,1.4,0.1,2.6,1,3.6c1,1.2,2.6,1.9,4.5,2.2s3.6-0.2,4.9-1.3C-63.4,172.9-62.8,170.1-65,167.5"/>
				<path id="path7959" class="st5" d="M-44.5,189.2l-10.9,9.4c1.3,0.3,2.7,0.5,3.9,0.6c1.3,0.1,3.5-0.2,6.9-0.9l0.2,1.5
					c-2.9,0.6-5,0.9-6.6,0.9c-1.6,0-3.5-0.3-5.9-0.9l-7.9,6.8c-1.3,1.1-2.5,1.7-3.9,1.8c-1.3,0.2-2.3-0.2-2.8-0.8s-0.7-1.5-0.3-2.6
					c0.4-1.1,1.2-2.2,2.3-3.2c3-2.6,7-3.8,12-3.7l2.7-2.4c-3.2,0.5-5.6-0.1-7-1.7c-0.9-1.1-1.3-2.3-1.2-3.7c0.2-1.6,0.9-3.1,2.4-4.3
					l3.7-3.2l-2,0.4l-0.3-1.6c2.2-0.5,3.5-0.8,4-0.9c0.7-0.2,1.3-0.6,2.1-1.2l1,1.1l-7.4,6.4c-1.1,1-1.7,2-1.9,3.1
					c-0.1,1.1,0.1,2,0.8,2.8c1,1.1,2.9,1.6,5.7,1.2c1.5-0.2,2.7-0.7,3.5-1.4l5.6-4.8L-44.5,189.2 M-65.7,205.4l6.7-5.8
					c-3.8,0.1-6.9,1.3-9.2,3.3c-0.8,0.7-1.5,1.5-1.7,2.3c-0.3,0.6-0.4,1.1-0.2,1.3c0.3,0.3,0.8,0.4,1.5,0.3
					C-67.6,206.7-66.7,206.2-65.7,205.4"/>
				<path id="path7961" class="st5" d="M-46.1,202.6l3.7-3.2l-2,0.4l-0.3-1.6c2.2-0.5,3.5-0.8,4-0.9c0.7-0.2,1.3-0.6,2.1-1.2l1,1.1
					l-7.4,6.4c-1.1,1-1.7,2-1.9,3.1c-0.1,1.1,0.1,2,0.8,2.8c1,1.1,2.9,1.6,5.7,1.2c1.5-0.2,2.7-0.7,3.5-1.4l5.6-4.8l1,1.2l-9.1,7.8
					c-0.6,0.5-1,1.1-1.1,1.8c-0.1,0.5,0,0.9,0.3,1.2c0.7,0.8,1.4,1,2.4,0.8l8.1-1.6l0.3,1.6l-8.1,1.6c-1.5,0.5-2.8,0-3.9-1.4
					c-0.7-0.8-0.9-1.8-0.5-2.9c0.4-1,0.8-1.8,1.6-2.3c-3.3,0.5-5.7-0.1-7.1-1.8c-0.9-1.1-1.3-2.3-1.2-3.7
					C-48.2,205.2-47.5,203.8-46.1,202.6"/>
				<path id="path7963" class="st5" d="M-4.6,210.9l1,1.2L-25,230.6c-0.2,0.3-0.5,0.8-0.8,1.5c-0.1,0.5,0,0.9,0.3,1.2
					c0.7,0.8,1.4,1,2.4,0.8l8.1-1.6l0.3,1.6l-8.1,1.6c-1.6,0.3-2.9-0.1-3.9-1.4c-0.7-0.8-0.9-1.8-0.6-2.8c0.3-0.9,0.7-1.7,1.4-2.1
					c-3.1,0.3-5.5-0.5-7.2-2.5c-1.2-1.4-1.7-3-1.5-4.9c0.3-1.8,1.1-3.5,2.6-4.8c1.9-1.6,4.1-2.4,6.6-2.3c2.4,0,4.3,0.9,5.6,2.5
					c1.4,1.7,1.9,3.4,1.5,5.4L-4.6,210.9 M-21,218.4c-1.1-1.3-2.7-1.9-5-1.9c-1.8,0-3.5,0.7-4.9,1.8c-1.3,1.1-2.1,2.3-2.3,3.7
					c-0.2,1.4,0.1,2.6,1,3.6c1.2,1.4,2.9,2.1,4.9,2.2c1.8,0.1,3.4-0.4,4.5-1.4C-19.4,223.7-18.8,220.9-21,218.4"/>
				<path id="path7965" class="st5" d="M-2.1,238.2l1,1.2l-9.3,8c-0.4,0.3-0.8,0.8-0.9,1.3c-0.2,0.6-0.1,1,0.3,1.4
					c0.7,0.8,1.4,1,2.4,0.8l8.1-1.6l0.3,1.6l-8.1,1.6c-1.6,0.3-2.9-0.1-3.9-1.4c-0.7-0.8-0.9-1.8-0.6-2.8c0.3-0.9,0.7-1.7,1.4-2.1
					c-3.1,0.3-5.5-0.5-7.2-2.5c-1.2-1.4-1.7-3-1.5-4.9c0.3-1.8,1.1-3.5,2.6-4.8c1.9-1.6,4.1-2.4,6.6-2.3c2.4,0,4.3,0.9,5.6,2.5
					c1.4,1.7,1.9,3.4,1.5,5.4L-2.1,238.2 M-6.4,235.3c-1-1.1-2.5-1.8-4.4-1.9c-2.1-0.1-3.9,0.5-5.4,1.8c-1.3,1.1-2.1,2.3-2.3,3.7
					c-0.2,1.4,0.1,2.6,1,3.6c1,1.2,2.6,1.9,4.5,2.2s3.6-0.2,4.9-1.3C-4.9,240.6-4.2,237.8-6.4,235.3"/>
				<path id="path7967" class="st5" d="M0.3,257.4l-1-1.2l20.1-17.3l1,1.2L0.3,257.4 M-2.5,258.8c0.5,0.6,0.5,1.2-0.2,1.8
					c-0.6,0.5-1.2,0.5-1.7-0.1c-0.5-0.6-0.5-1.2,0.1-1.7C-3.7,258.1-3,258.2-2.5,258.8"/>
			</g>
			
				<path id="path7885" sodipodi:cx="201.25238" sodipodi:cy="16.19532" sodipodi:rx="1.5532157" sodipodi:ry="1.5532157" sodipodi:type="arc" class="st6" d="
				M312.8,163.7c-0.7,0.6-1.7,0.5-2.3-0.2c-0.6-0.7-0.5-1.7,0.2-2.3l0,0c0.7-0.6,1.7-0.5,2.3,0.2
				C313.5,162.2,313.4,163.2,312.8,163.7C312.8,163.7,312.8,163.7,312.8,163.7z"/>
			
				<path id="path7887" sodipodi:cx="201.25238" sodipodi:cy="16.19532" sodipodi:rx="1.5532157" sodipodi:ry="1.5532157" sodipodi:type="arc" class="st6" d="
				M310.4,170.3c-0.9,0.8-2.3,0.5-3.3-0.6c-1-1.1-1-2.6-0.1-3.3l0,0c0.9-0.8,2.3-0.5,3.3,0.6C311.2,168,311.3,169.5,310.4,170.3
				C310.4,170.2,310.4,170.3,310.4,170.3z"/>
			
				<path id="path7889" sodipodi:cx="201.25238" sodipodi:cy="16.19532" sodipodi:rx="1.5532157" sodipodi:ry="1.5532157" sodipodi:type="arc" class="st6" d="
				M295.1,173.1c-0.9,0.8-2,0.8-2.7,0.1c-0.6-0.7-0.4-1.9,0.5-2.7l0,0c0.9-0.8,2-0.8,2.7-0.1S296,172.3,295.1,173.1L295.1,173.1z"/>
			<path id="path7901" sodipodi:nodetypes="ccccc" class="st7" d="M321,153.7c0,0-11.1,15.8,1,30.1c6-9,6.1-19.3-0.5-31L321,153.7
				L321,153.7z"/>
		</g>
	</g>
</g>
</svg>
